<svg xmlns="http://www.w3.org/2000/svg" xmlns:xlink="http://www.w3.org/1999/xlink" width="500" zoomAndPan="magnify" viewBox="0 0 375 374.999991" height="500" preserveAspectRatio="xMidYMid meet" version="1.2"><defs><clipPath id="57e2acecd6"><path d="M 79.089844 146.789062 L 154 146.789062 L 154 221.703125 L 79.089844 221.703125 Z M 79.089844 146.789062 "/></clipPath><clipPath id="f8a9cae9e6"><path d="M 116.546875 146.789062 C 95.859375 146.789062 79.089844 163.558594 79.089844 184.242188 C 79.089844 204.929688 95.859375 221.699219 116.546875 221.699219 L 154 221.699219 L 154 184.242188 C 154.007812 163.558594 137.230469 146.789062 116.546875 146.789062 Z M 116.546875 146.789062 "/></clipPath></defs><g id="2221816d08"><g clip-rule="nonzero" clip-path="url(#57e2acecd6)"><g clip-rule="nonzero" clip-path="url(#f8a9cae9e6)"><path style=" stroke:none;fill-rule:nonzero;fill:#ff914d;fill-opacity:1;" d="M 79.089844 146.789062 L 154.007812 146.789062 L 154.007812 221.703125 L 79.089844 221.703125 Z M 79.089844 146.789062 "/></g></g><g style="fill:#ffffff;fill-opacity:1;"><g transform="translate(99.753279, 203.489459)"><path style="stroke:none" d="M 21.96875 -7.484375 C 23.226562 -7.484375 24.453125 -7.671875 25.640625 -8.046875 C 26.835938 -8.429688 27.710938 -8.800781 28.265625 -9.15625 L 29.109375 -9.734375 L 32.625 -2.6875 C 32.507812 -2.59375 32.347656 -2.472656 32.140625 -2.328125 C 31.929688 -2.179688 31.453125 -1.910156 30.703125 -1.515625 C 29.960938 -1.117188 29.164062 -0.773438 28.3125 -0.484375 C 27.457031 -0.191406 26.335938 0.0664062 24.953125 0.296875 C 23.578125 0.535156 22.15625 0.65625 20.6875 0.65625 C 17.3125 0.65625 14.113281 -0.171875 11.09375 -1.828125 C 8.070312 -3.484375 5.632812 -5.765625 3.78125 -8.671875 C 1.9375 -11.578125 1.015625 -14.71875 1.015625 -18.09375 C 1.015625 -20.644531 1.554688 -23.09375 2.640625 -25.4375 C 3.722656 -27.789062 5.164062 -29.800781 6.96875 -31.46875 C 8.78125 -33.144531 10.890625 -34.484375 13.296875 -35.484375 C 15.703125 -36.484375 18.164062 -36.984375 20.6875 -36.984375 C 23.039062 -36.984375 25.207031 -36.703125 27.1875 -36.140625 C 29.164062 -35.585938 30.566406 -35.03125 31.390625 -34.46875 L 32.625 -33.640625 L 29.109375 -26.59375 C 28.898438 -26.769531 28.585938 -26.984375 28.171875 -27.234375 C 27.765625 -27.484375 26.941406 -27.8125 25.703125 -28.21875 C 24.472656 -28.632812 23.226562 -28.84375 21.96875 -28.84375 C 19.976562 -28.84375 18.1875 -28.519531 16.59375 -27.875 C 15.007812 -27.226562 13.753906 -26.375 12.828125 -25.3125 C 11.910156 -24.257812 11.207031 -23.125 10.71875 -21.90625 C 10.238281 -20.6875 10 -19.445312 10 -18.1875 C 10 -15.425781 11.03125 -12.953125 13.09375 -10.765625 C 15.164062 -8.578125 18.125 -7.484375 21.96875 -7.484375 Z M 21.96875 -7.484375 "/></g></g><g style="fill:#ffffff;fill-opacity:1;"><g transform="translate(289.536461, 215.129288)"><path style="stroke:none" d="M 0.65625 0 L 0.65625 -7.0625 L 2.109375 -7.0625 C 2.628906 -7.0625 3.023438 -7.035156 3.296875 -6.984375 C 3.566406 -6.941406 3.804688 -6.851562 4.015625 -6.71875 C 4.546875 -6.375 4.8125 -5.863281 4.8125 -5.1875 C 4.8125 -4.851562 4.75 -4.582031 4.625 -4.375 C 4.507812 -4.175781 4.3125 -4.003906 4.03125 -3.859375 C 4.4375 -3.691406 4.722656 -3.492188 4.890625 -3.265625 C 5.117188 -2.960938 5.234375 -2.578125 5.234375 -2.109375 C 5.234375 -1.742188 5.15625 -1.410156 5 -1.109375 C 4.84375 -0.804688 4.617188 -0.566406 4.328125 -0.390625 C 3.898438 -0.128906 3.300781 0 2.53125 0 Z M 1.953125 -1.25 L 2.609375 -1.25 C 3.066406 -1.25 3.398438 -1.316406 3.609375 -1.453125 C 3.816406 -1.597656 3.921875 -1.820312 3.921875 -2.125 C 3.921875 -2.75 3.472656 -3.0625 2.578125 -3.0625 L 1.953125 -3.0625 Z M 1.953125 -4.34375 L 2.375 -4.34375 C 2.769531 -4.34375 3.054688 -4.398438 3.234375 -4.515625 C 3.421875 -4.628906 3.515625 -4.8125 3.515625 -5.0625 C 3.515625 -5.539062 3.175781 -5.78125 2.5 -5.78125 L 1.953125 -5.78125 Z M 1.953125 -4.34375 "/></g></g><g style="fill:#ffffff;fill-opacity:1;"><g transform="translate(295.60049, 215.129288)"><path style="stroke:none" d="M 0.515625 0 L 0.515625 -7.0625 L 1.78125 -7.0625 L 1.78125 0 Z M 0.515625 0 "/></g></g><g style="fill:#ffffff;fill-opacity:1;"><g transform="translate(298.415146, 215.129288)"><path style="stroke:none" d="M 3.09375 -5.421875 C 3.882812 -5.421875 4.550781 -5.148438 5.09375 -4.609375 C 5.644531 -4.066406 5.921875 -3.398438 5.921875 -2.609375 C 5.921875 -1.859375 5.640625 -1.210938 5.078125 -0.671875 C 4.523438 -0.140625 3.863281 0.125 3.09375 0.125 C 2.320312 0.125 1.660156 -0.144531 1.109375 -0.6875 C 0.554688 -1.226562 0.28125 -1.882812 0.28125 -2.65625 C 0.28125 -3.40625 0.554688 -4.050781 1.109375 -4.59375 C 1.660156 -5.144531 2.320312 -5.421875 3.09375 -5.421875 Z M 3.09375 -4.25 C 2.675781 -4.25 2.316406 -4.09375 2.015625 -3.78125 C 1.710938 -3.46875 1.5625 -3.097656 1.5625 -2.671875 C 1.5625 -2.210938 1.710938 -1.828125 2.015625 -1.515625 C 2.316406 -1.203125 2.679688 -1.046875 3.109375 -1.046875 C 3.523438 -1.046875 3.882812 -1.203125 4.1875 -1.515625 C 4.488281 -1.828125 4.640625 -2.207031 4.640625 -2.65625 C 4.640625 -3.09375 4.488281 -3.46875 4.1875 -3.78125 C 3.882812 -4.09375 3.519531 -4.25 3.09375 -4.25 Z M 3.09375 -4.25 "/></g></g><g style="fill:#ffffff;fill-opacity:1;"><g transform="translate(305.052596, 215.129288)"><path style="stroke:none" d="M 4.625 -5.296875 L 5.84375 -5.296875 L 5.84375 -1 C 5.84375 -0.03125 5.664062 0.679688 5.3125 1.140625 C 4.800781 1.785156 4.0625 2.109375 3.09375 2.109375 C 2.445312 2.109375 1.882812 1.957031 1.40625 1.65625 C 0.9375 1.363281 0.59375 0.957031 0.375 0.4375 L 1.8125 0.4375 C 2 0.632812 2.191406 0.773438 2.390625 0.859375 C 2.597656 0.953125 2.847656 1 3.140625 1 C 4.085938 1 4.582031 0.429688 4.625 -0.703125 C 4.375 -0.410156 4.113281 -0.195312 3.84375 -0.0625 C 3.570312 0.0625 3.253906 0.125 2.890625 0.125 C 2.128906 0.125 1.503906 -0.140625 1.015625 -0.671875 C 0.523438 -1.203125 0.28125 -1.875 0.28125 -2.6875 C 0.28125 -3.46875 0.523438 -4.117188 1.015625 -4.640625 C 1.515625 -5.160156 2.140625 -5.421875 2.890625 -5.421875 C 3.660156 -5.421875 4.238281 -5.15625 4.625 -4.625 Z M 3.046875 -4.25 C 2.597656 -4.25 2.238281 -4.097656 1.96875 -3.796875 C 1.695312 -3.503906 1.5625 -3.113281 1.5625 -2.625 C 1.5625 -2.144531 1.695312 -1.757812 1.96875 -1.46875 C 2.238281 -1.1875 2.597656 -1.046875 3.046875 -1.046875 C 3.503906 -1.046875 3.867188 -1.1875 4.140625 -1.46875 C 4.421875 -1.757812 4.5625 -2.144531 4.5625 -2.625 C 4.5625 -3.113281 4.421875 -3.503906 4.140625 -3.796875 C 3.859375 -4.097656 3.492188 -4.25 3.046875 -4.25 Z M 3.046875 -4.25 "/></g></g></g></svg>