<svg xmlns="http://www.w3.org/2000/svg" xmlns:xlink="http://www.w3.org/1999/xlink" width="500" zoomAndPan="magnify" viewBox="0 0 375 374.999991" height="500" preserveAspectRatio="xMidYMid meet" version="1.2"><defs><clipPath id="bd85aa55f0"><path d="M 79.089844 146.789062 L 154 146.789062 L 154 221.703125 L 79.089844 221.703125 Z M 79.089844 146.789062 "/></clipPath><clipPath id="a31c95bcdb"><path d="M 116.546875 146.789062 C 95.859375 146.789062 79.089844 163.558594 79.089844 184.242188 C 79.089844 204.929688 95.859375 221.699219 116.546875 221.699219 L 154 221.699219 L 154 184.242188 C 154.007812 163.558594 137.230469 146.789062 116.546875 146.789062 Z M 116.546875 146.789062 "/></clipPath></defs><g id="e4cdacf469"><g clip-rule="nonzero" clip-path="url(#bd85aa55f0)"><g clip-rule="nonzero" clip-path="url(#a31c95bcdb)"><path style=" stroke:none;fill-rule:nonzero;fill:#ff914d;fill-opacity:1;" d="M 79.089844 146.789062 L 154.007812 146.789062 L 154.007812 221.703125 L 79.089844 221.703125 Z M 79.089844 146.789062 "/></g></g><g style="fill:#ff914d;fill-opacity:1;"><g transform="translate(178.721945, 182.128846)"><path style="stroke:none" d="M 18.234375 -6.265625 L 23.140625 -6.265625 C 22.265625 -4.222656 20.890625 -2.601562 19.015625 -1.40625 C 17.140625 -0.207031 15.050781 0.390625 12.75 0.390625 C 9.46875 0.390625 6.671875 -0.75 4.359375 -3.03125 C 2.054688 -5.3125 0.90625 -8.078125 0.90625 -11.328125 C 0.90625 -14.515625 2.035156 -17.238281 4.296875 -19.5 C 6.566406 -21.757812 9.296875 -22.890625 12.484375 -22.890625 C 15.328125 -22.890625 17.8125 -22.03125 19.9375 -20.3125 C 20.6875 -19.675781 21.296875 -19.046875 21.765625 -18.421875 C 22.234375 -17.804688 22.691406 -17.015625 23.140625 -16.046875 L 18.484375 -16.046875 C 17.710938 -17.035156 16.859375 -17.753906 15.921875 -18.203125 C 14.984375 -18.648438 13.867188 -18.875 12.578125 -18.875 C 10.242188 -18.875 8.375 -18.050781 6.96875 -16.40625 C 5.726562 -14.96875 5.109375 -13.265625 5.109375 -11.296875 C 5.109375 -9.179688 5.847656 -7.375 7.328125 -5.875 C 8.816406 -4.375 10.597656 -3.625 12.671875 -3.625 C 13.765625 -3.625 14.738281 -3.828125 15.59375 -4.234375 C 16.445312 -4.640625 17.328125 -5.316406 18.234375 -6.265625 Z M 18.234375 -6.265625 "/></g></g><g style="fill:#ff914d;fill-opacity:1;"><g transform="translate(204.121556, 182.128846)"><path style="stroke:none" d="M 1.640625 0 L 1.640625 -22.5 L 5.6875 -22.5 L 5.6875 -15.703125 C 6.863281 -16.765625 8.296875 -17.296875 9.984375 -17.296875 C 12.484375 -17.296875 14.3125 -16.398438 15.46875 -14.609375 C 16.21875 -13.472656 16.59375 -11.78125 16.59375 -9.53125 L 16.59375 0 L 12.546875 0 L 12.546875 -8.609375 C 12.546875 -10.378906 12.289062 -11.644531 11.78125 -12.40625 C 11.269531 -13.164062 10.425781 -13.546875 9.25 -13.546875 C 7.875 -13.546875 6.878906 -13.007812 6.265625 -11.9375 C 5.878906 -11.25 5.6875 -10.125 5.6875 -8.5625 L 5.6875 0 Z M 1.640625 0 "/></g></g><g style="fill:#ff914d;fill-opacity:1;"><g transform="translate(224.042605, 182.128846)"><path style="stroke:none" d="M 18.71875 -16.875 L 18.71875 0 L 15.015625 0 L 15.015625 -2.1875 C 14.203125 -1.28125 13.359375 -0.625 12.484375 -0.21875 C 11.609375 0.1875 10.582031 0.390625 9.40625 0.390625 C 6.945312 0.390625 4.914062 -0.429688 3.3125 -2.078125 C 1.707031 -3.734375 0.90625 -5.832031 0.90625 -8.375 C 0.90625 -10.945312 1.710938 -13.070312 3.328125 -14.75 C 4.941406 -16.425781 7 -17.265625 9.5 -17.265625 C 11.832031 -17.265625 13.671875 -16.378906 15.015625 -14.609375 L 15.015625 -16.875 Z M 13.484375 -12.078125 C 12.554688 -13.054688 11.367188 -13.546875 9.921875 -13.546875 C 8.484375 -13.546875 7.300781 -13.050781 6.375 -12.0625 C 5.457031 -11.082031 5 -9.820312 5 -8.28125 C 5 -6.800781 5.457031 -5.601562 6.375 -4.6875 C 7.300781 -3.769531 8.503906 -3.3125 9.984375 -3.3125 C 11.585938 -3.3125 12.816406 -3.820312 13.671875 -4.84375 C 14.484375 -5.789062 14.890625 -6.945312 14.890625 -8.3125 C 14.890625 -9.851562 14.421875 -11.109375 13.484375 -12.078125 Z M 13.484375 -12.078125 "/></g></g><g style="fill:#ff914d;fill-opacity:1;"><g transform="translate(245.789846, 182.128846)"><path style="stroke:none" d="M 1.640625 0 L 1.640625 -16.875 L 5.359375 -16.875 L 5.359375 -15.21875 C 5.890625 -15.988281 6.410156 -16.519531 6.921875 -16.8125 C 7.441406 -17.113281 8.140625 -17.265625 9.015625 -17.265625 L 9.3125 -17.265625 L 9.3125 -13.359375 C 6.894531 -13.304688 5.6875 -11.976562 5.6875 -9.375 L 5.6875 0 Z M 1.640625 0 "/></g></g><g style="fill:#ff914d;fill-opacity:1;"><g transform="translate(257.188687, 182.128846)"><path style="stroke:none" d="M 1.640625 0 L 1.640625 -22.5 L 5.6875 -22.5 L 5.6875 0 Z M 1.640625 0 "/></g></g><g style="fill:#ff914d;fill-opacity:1;"><g transform="translate(266.152615, 182.128846)"><path style="stroke:none" d="M 1.640625 0 L 1.640625 -16.875 L 5.6875 -16.875 L 5.6875 0 Z M 1.640625 -18.6875 L 1.640625 -22.5 L 5.6875 -22.5 L 5.6875 -18.6875 Z M 1.640625 -18.6875 "/></g></g><g style="fill:#ff914d;fill-opacity:1;"><g transform="translate(275.116542, 182.128846)"><path style="stroke:none" d="M 18.359375 -6.640625 L 5.296875 -6.640625 C 5.535156 -5.617188 6.070312 -4.804688 6.90625 -4.203125 C 7.738281 -3.609375 8.753906 -3.3125 9.953125 -3.3125 C 10.785156 -3.3125 11.476562 -3.4375 12.03125 -3.6875 C 12.59375 -3.945312 13.140625 -4.382812 13.671875 -5 L 18.078125 -5 C 17.835938 -4.238281 17.394531 -3.457031 16.75 -2.65625 C 14.976562 -0.625 12.742188 0.390625 10.046875 0.390625 C 7.472656 0.390625 5.304688 -0.445312 3.546875 -2.125 C 1.785156 -3.8125 0.90625 -5.894531 0.90625 -8.375 C 0.90625 -10.851562 1.769531 -12.953125 3.5 -14.671875 C 5.226562 -16.398438 7.328125 -17.265625 9.796875 -17.265625 C 12.316406 -17.265625 14.398438 -16.40625 16.046875 -14.6875 C 17.691406 -12.976562 18.515625 -10.8125 18.515625 -8.1875 C 18.515625 -7.644531 18.460938 -7.128906 18.359375 -6.640625 Z M 5.171875 -10.203125 L 14.515625 -10.203125 C 14.253906 -11.273438 13.722656 -12.097656 12.921875 -12.671875 C 12.117188 -13.253906 11.097656 -13.546875 9.859375 -13.546875 C 7.410156 -13.546875 5.847656 -12.429688 5.171875 -10.203125 Z M 5.171875 -10.203125 "/></g></g><g style="fill:#ffffff;fill-opacity:1;"><g transform="translate(99.753279, 203.489459)"><path style="stroke:none" d="M 21.96875 -7.484375 C 23.226562 -7.484375 24.453125 -7.671875 25.640625 -8.046875 C 26.835938 -8.429688 27.710938 -8.800781 28.265625 -9.15625 L 29.109375 -9.734375 L 32.625 -2.6875 C 32.507812 -2.59375 32.347656 -2.472656 32.140625 -2.328125 C 31.929688 -2.179688 31.453125 -1.910156 30.703125 -1.515625 C 29.960938 -1.117188 29.164062 -0.773438 28.3125 -0.484375 C 27.457031 -0.191406 26.335938 0.0664062 24.953125 0.296875 C 23.578125 0.535156 22.15625 0.65625 20.6875 0.65625 C 17.3125 0.65625 14.113281 -0.171875 11.09375 -1.828125 C 8.070312 -3.484375 5.632812 -5.765625 3.78125 -8.671875 C 1.9375 -11.578125 1.015625 -14.71875 1.015625 -18.09375 C 1.015625 -20.644531 1.554688 -23.09375 2.640625 -25.4375 C 3.722656 -27.789062 5.164062 -29.800781 6.96875 -31.46875 C 8.78125 -33.144531 10.890625 -34.484375 13.296875 -35.484375 C 15.703125 -36.484375 18.164062 -36.984375 20.6875 -36.984375 C 23.039062 -36.984375 25.207031 -36.703125 27.1875 -36.140625 C 29.164062 -35.585938 30.566406 -35.03125 31.390625 -34.46875 L 32.625 -33.640625 L 29.109375 -26.59375 C 28.898438 -26.769531 28.585938 -26.984375 28.171875 -27.234375 C 27.765625 -27.484375 26.941406 -27.8125 25.703125 -28.21875 C 24.472656 -28.632812 23.226562 -28.84375 21.96875 -28.84375 C 19.976562 -28.84375 18.1875 -28.519531 16.59375 -27.875 C 15.007812 -27.226562 13.753906 -26.375 12.828125 -25.3125 C 11.910156 -24.257812 11.207031 -23.125 10.71875 -21.90625 C 10.238281 -20.6875 10 -19.445312 10 -18.1875 C 10 -15.425781 11.03125 -12.953125 13.09375 -10.765625 C 15.164062 -8.578125 18.125 -7.484375 21.96875 -7.484375 Z M 21.96875 -7.484375 "/></g></g><g style="fill:#ff914d;fill-opacity:1;"><g transform="translate(178.721945, 216.385431)"><path style="stroke:none" d="M 18.71875 -6.4375 L 23.75 -6.4375 C 22.851562 -4.332031 21.441406 -2.664062 19.515625 -1.4375 C 17.585938 -0.207031 15.445312 0.40625 13.09375 0.40625 C 9.71875 0.40625 6.847656 -0.765625 4.484375 -3.109375 C 2.117188 -5.453125 0.9375 -8.289062 0.9375 -11.625 C 0.9375 -14.894531 2.097656 -17.691406 4.421875 -20.015625 C 6.742188 -22.335938 9.539062 -23.5 12.8125 -23.5 C 15.726562 -23.5 18.28125 -22.613281 20.46875 -20.84375 C 21.238281 -20.195312 21.863281 -19.554688 22.34375 -18.921875 C 22.820312 -18.285156 23.289062 -17.46875 23.75 -16.46875 L 18.96875 -16.46875 C 18.175781 -17.488281 17.300781 -18.226562 16.34375 -18.6875 C 15.382812 -19.144531 14.238281 -19.375 12.90625 -19.375 C 10.507812 -19.375 8.59375 -18.53125 7.15625 -16.84375 C 5.882812 -15.363281 5.25 -13.613281 5.25 -11.59375 C 5.25 -9.425781 6.007812 -7.570312 7.53125 -6.03125 C 9.050781 -4.488281 10.875 -3.71875 13 -3.71875 C 14.125 -3.71875 15.125 -3.925781 16 -4.34375 C 16.875 -4.757812 17.78125 -5.457031 18.71875 -6.4375 Z M 18.71875 -6.4375 "/></g></g><g style="fill:#ff914d;fill-opacity:1;"><g transform="translate(204.794297, 216.385431)"><path style="stroke:none" d="M 1.6875 0 L 1.6875 -23.09375 L 5.84375 -23.09375 L 5.84375 0 Z M 1.6875 0 "/></g></g><g style="fill:#ff914d;fill-opacity:1;"><g transform="translate(213.995472, 216.385431)"><path style="stroke:none" d="M 10.09375 -17.71875 C 12.695312 -17.71875 14.890625 -16.832031 16.671875 -15.0625 C 18.453125 -13.289062 19.34375 -11.113281 19.34375 -8.53125 C 19.34375 -6.09375 18.4375 -3.992188 16.625 -2.234375 C 14.8125 -0.472656 12.644531 0.40625 10.125 0.40625 C 7.582031 0.40625 5.414062 -0.476562 3.625 -2.25 C 1.832031 -4.019531 0.9375 -6.15625 0.9375 -8.65625 C 0.9375 -11.132812 1.832031 -13.265625 3.625 -15.046875 C 5.414062 -16.828125 7.570312 -17.71875 10.09375 -17.71875 Z M 10.125 -13.90625 C 8.769531 -13.90625 7.597656 -13.394531 6.609375 -12.375 C 5.617188 -11.351562 5.125 -10.132812 5.125 -8.71875 C 5.125 -7.238281 5.613281 -5.984375 6.59375 -4.953125 C 7.570312 -3.921875 8.757812 -3.40625 10.15625 -3.40625 C 11.53125 -3.40625 12.707031 -3.914062 13.6875 -4.9375 C 14.664062 -5.957031 15.15625 -7.195312 15.15625 -8.65625 C 15.15625 -10.09375 14.664062 -11.328125 13.6875 -12.359375 C 12.707031 -13.390625 11.519531 -13.90625 10.125 -13.90625 Z M 10.125 -13.90625 "/></g></g><g style="fill:#ff914d;fill-opacity:1;"><g transform="translate(235.693812, 216.385431)"><path style="stroke:none" d="M 17.09375 -17.3125 L 17.09375 0 L 13.25 0 L 13.25 -1.65625 C 12.476562 -0.882812 11.71875 -0.347656 10.96875 -0.046875 C 10.21875 0.253906 9.320312 0.40625 8.28125 0.40625 C 5.945312 0.40625 4.1875 -0.445312 3 -2.15625 C 2.519531 -2.882812 2.179688 -3.679688 1.984375 -4.546875 C 1.785156 -5.410156 1.6875 -6.570312 1.6875 -8.03125 L 1.6875 -17.3125 L 5.84375 -17.3125 L 5.84375 -8.84375 C 5.84375 -6.65625 6.125 -5.207031 6.6875 -4.5 C 7.226562 -3.769531 8.039062 -3.40625 9.125 -3.40625 C 10.601562 -3.40625 11.65625 -3.9375 12.28125 -5 C 12.71875 -5.664062 12.9375 -7.050781 12.9375 -9.15625 L 12.9375 -17.3125 Z M 17.09375 -17.3125 "/></g></g><g style="fill:#ff914d;fill-opacity:1;"><g transform="translate(256.142434, 216.385431)"><path style="stroke:none" d="M 19.15625 -23.09375 L 19.15625 0 L 15.34375 0 L 15.34375 -2.25 C 13.78125 -0.476562 11.875 0.40625 9.625 0.40625 C 7.164062 0.40625 5.101562 -0.46875 3.4375 -2.21875 C 1.769531 -3.96875 0.9375 -6.125 0.9375 -8.6875 C 0.9375 -11.269531 1.773438 -13.457031 3.453125 -15.25 C 5.128906 -17.039062 7.175781 -17.9375 9.59375 -17.9375 C 11.882812 -17.9375 13.6875 -17.21875 15 -15.78125 L 15 -23.09375 Z M 10.1875 -14.125 C 8.769531 -14.125 7.570312 -13.617188 6.59375 -12.609375 C 5.613281 -11.597656 5.125 -10.351562 5.125 -8.875 C 5.125 -7.332031 5.617188 -6.035156 6.609375 -4.984375 C 7.597656 -3.929688 8.820312 -3.40625 10.28125 -3.40625 C 11.695312 -3.40625 12.890625 -3.921875 13.859375 -4.953125 C 14.828125 -5.984375 15.3125 -7.25 15.3125 -8.75 C 15.3125 -10.269531 14.820312 -11.546875 13.84375 -12.578125 C 12.863281 -13.609375 11.644531 -14.125 10.1875 -14.125 Z M 10.1875 -14.125 "/></g></g><g style="fill:#ff914d;fill-opacity:1;"><g transform="translate(278.471938, 216.385431)"><path style="stroke:none" d=""/></g></g><g style="fill:#ffffff;fill-opacity:1;"><g transform="translate(289.536461, 215.129288)"><path style="stroke:none" d="M 0.65625 0 L 0.65625 -7.0625 L 2.109375 -7.0625 C 2.628906 -7.0625 3.023438 -7.035156 3.296875 -6.984375 C 3.566406 -6.941406 3.804688 -6.851562 4.015625 -6.71875 C 4.546875 -6.375 4.8125 -5.863281 4.8125 -5.1875 C 4.8125 -4.851562 4.75 -4.582031 4.625 -4.375 C 4.507812 -4.175781 4.3125 -4.003906 4.03125 -3.859375 C 4.4375 -3.691406 4.722656 -3.492188 4.890625 -3.265625 C 5.117188 -2.960938 5.234375 -2.578125 5.234375 -2.109375 C 5.234375 -1.742188 5.15625 -1.410156 5 -1.109375 C 4.84375 -0.804688 4.617188 -0.566406 4.328125 -0.390625 C 3.898438 -0.128906 3.300781 0 2.53125 0 Z M 1.953125 -1.25 L 2.609375 -1.25 C 3.066406 -1.25 3.398438 -1.316406 3.609375 -1.453125 C 3.816406 -1.597656 3.921875 -1.820312 3.921875 -2.125 C 3.921875 -2.75 3.472656 -3.0625 2.578125 -3.0625 L 1.953125 -3.0625 Z M 1.953125 -4.34375 L 2.375 -4.34375 C 2.769531 -4.34375 3.054688 -4.398438 3.234375 -4.515625 C 3.421875 -4.628906 3.515625 -4.8125 3.515625 -5.0625 C 3.515625 -5.539062 3.175781 -5.78125 2.5 -5.78125 L 1.953125 -5.78125 Z M 1.953125 -4.34375 "/></g></g><g style="fill:#ffffff;fill-opacity:1;"><g transform="translate(295.60049, 215.129288)"><path style="stroke:none" d="M 0.515625 0 L 0.515625 -7.0625 L 1.78125 -7.0625 L 1.78125 0 Z M 0.515625 0 "/></g></g><g style="fill:#ffffff;fill-opacity:1;"><g transform="translate(298.415146, 215.129288)"><path style="stroke:none" d="M 3.09375 -5.421875 C 3.882812 -5.421875 4.550781 -5.148438 5.09375 -4.609375 C 5.644531 -4.066406 5.921875 -3.398438 5.921875 -2.609375 C 5.921875 -1.859375 5.640625 -1.210938 5.078125 -0.671875 C 4.523438 -0.140625 3.863281 0.125 3.09375 0.125 C 2.320312 0.125 1.660156 -0.144531 1.109375 -0.6875 C 0.554688 -1.226562 0.28125 -1.882812 0.28125 -2.65625 C 0.28125 -3.40625 0.554688 -4.050781 1.109375 -4.59375 C 1.660156 -5.144531 2.320312 -5.421875 3.09375 -5.421875 Z M 3.09375 -4.25 C 2.675781 -4.25 2.316406 -4.09375 2.015625 -3.78125 C 1.710938 -3.46875 1.5625 -3.097656 1.5625 -2.671875 C 1.5625 -2.210938 1.710938 -1.828125 2.015625 -1.515625 C 2.316406 -1.203125 2.679688 -1.046875 3.109375 -1.046875 C 3.523438 -1.046875 3.882812 -1.203125 4.1875 -1.515625 C 4.488281 -1.828125 4.640625 -2.207031 4.640625 -2.65625 C 4.640625 -3.09375 4.488281 -3.46875 4.1875 -3.78125 C 3.882812 -4.09375 3.519531 -4.25 3.09375 -4.25 Z M 3.09375 -4.25 "/></g></g><g style="fill:#ffffff;fill-opacity:1;"><g transform="translate(305.052596, 215.129288)"><path style="stroke:none" d="M 4.625 -5.296875 L 5.84375 -5.296875 L 5.84375 -1 C 5.84375 -0.03125 5.664062 0.679688 5.3125 1.140625 C 4.800781 1.785156 4.0625 2.109375 3.09375 2.109375 C 2.445312 2.109375 1.882812 1.957031 1.40625 1.65625 C 0.9375 1.363281 0.59375 0.957031 0.375 0.4375 L 1.8125 0.4375 C 2 0.632812 2.191406 0.773438 2.390625 0.859375 C 2.597656 0.953125 2.847656 1 3.140625 1 C 4.085938 1 4.582031 0.429688 4.625 -0.703125 C 4.375 -0.410156 4.113281 -0.195312 3.84375 -0.0625 C 3.570312 0.0625 3.253906 0.125 2.890625 0.125 C 2.128906 0.125 1.503906 -0.140625 1.015625 -0.671875 C 0.523438 -1.203125 0.28125 -1.875 0.28125 -2.6875 C 0.28125 -3.46875 0.523438 -4.117188 1.015625 -4.640625 C 1.515625 -5.160156 2.140625 -5.421875 2.890625 -5.421875 C 3.660156 -5.421875 4.238281 -5.15625 4.625 -4.625 Z M 3.046875 -4.25 C 2.597656 -4.25 2.238281 -4.097656 1.96875 -3.796875 C 1.695312 -3.503906 1.5625 -3.113281 1.5625 -2.625 C 1.5625 -2.144531 1.695312 -1.757812 1.96875 -1.46875 C 2.238281 -1.1875 2.597656 -1.046875 3.046875 -1.046875 C 3.503906 -1.046875 3.867188 -1.1875 4.140625 -1.46875 C 4.421875 -1.757812 4.5625 -2.144531 4.5625 -2.625 C 4.5625 -3.113281 4.421875 -3.503906 4.140625 -3.796875 C 3.859375 -4.097656 3.492188 -4.25 3.046875 -4.25 Z M 3.046875 -4.25 "/></g></g></g></svg>